<svg width="800" height="540" viewBox="0 0 800 540" fill="none" xmlns="http://www.w3.org/2000/svg">
  <rect width="800" height="540" rx="28" fill="#FBF7F0"/>
  <rect x="28" y="28" width="744" height="484" rx="22" stroke="#D8CDBD" stroke-width="2"/>
  <path d="M0 414C108 339 234 300 351 300C504 300 592 371 710 371C743 371 772 367 800 360V540H0V414Z" fill="#EFE6D8"/>
  <circle cx="625" cy="122" r="42" fill="#B1382F" fill-opacity="0.9"/>
  <path d="M274 136C308 110 349 96 393 96C460 96 517 141 524 220" stroke="#171717" stroke-width="20" stroke-linecap="round"/>
  <path d="M238 173C283 200 332 214 392 214C453 214 507 197 566 149" stroke="#171717" stroke-width="20" stroke-linecap="round"/>
  <path d="M387 214L314 428H433L511 214H387Z" fill="#F6F1E8" stroke="#CBBDA8" stroke-width="2"/>
  <path d="M510 214L434 428H559L635 214H510Z" fill="#171717"/>
  <path d="M168 320C218 274 262 244 301 227" stroke="#B1382F" stroke-opacity="0.2" stroke-width="18" stroke-linecap="round"/>
  <path d="M580 194C622 233 665 289 699 355" stroke="#6B6258" stroke-opacity="0.18" stroke-width="18" stroke-linecap="round"/>
</svg>
